<svg id="Layer_1" enable-background="new 0 0 512 512" height="512" viewBox="0 0 512 512" width="512" xmlns="http://www.w3.org/2000/svg"><g><path d="m511.738 378.226s-20.123-86.146-20.151-86.25c-3.021-11.281-9.17-21.09-17.352-28.609 0 0 37.765-169.991 37.765-187.016 0-4.74-4.75-35.35-34.98-35.35-31.353-.001-35.02 30.609-35.02 35.349 0 5.51 4.49 10 10 10s10-4.49 10-10c0-4.12 1.188-15.35 15-15.35 11.167 0 15 11.23 15 15.35-.01 2.28-1.684 6.683-1.692 6.7-2.603 5.324-9.568 11.173-17.388 14.58-23.2 10.4-69.158 15.362-92.66 16.37-35.847 1.538-70.64-6-95.38-16.46-5.38-2.24-10.38-5.68-13.72-9.44-3.471-3.89-5.16-7.74-5.16-11.75 0-4.11 1-14.683 14-15.35 13.233-.679 16 11.23 16 15.35 0 5.51 4.49 10 10 10s10-4.49 10-10c0-4.74-3.875-35.35-34.98-35.35-11.645 0-24.962 10.553-25.034 10.628-6.358-6.552-15.207-10.628-24.986-10.628-19.299 0-35 15.858-35 35.35 0 5.523 4.477 10 10 10s10-4.477 10-10c0-8.464 6.729-15.35 15-15.35s15 6.886 15 15.35c-.01 3.95-1.7 7.75-5.17 11.62-3.33 3.7-8.4 7.22-13.91 9.66-23.19 10.4-56.761 17.85-92 16.37-24.339-1.022-71.3-6-96.04-16.46-7.643-3.131-14.521-8.909-17.177-14.379-.018-.037-1.703-4.575-1.703-6.811 0-8.464 6.729-15.35 15-15.35s15 6.886 15 15.35c0 5.523 4.477 10 10 10s10-4.477 10-10c0-19.492-15.701-35.35-35-35.35s-35 14.858-35 34.35c0 2.65 11.85 60.16 11.85 60.16.92 4.69 5.04 8.1 9.81 8.1.64 0 1.29-.07 1.92-.19 5.41-1.05 8.96-6.31 7.91-11.73l-3.32-17.06c.95.46 38.08 19.87 106.4 19.37 13.38-.098 36.66-1.5 53.34-4.39 17.74-3.08 34.285-8.032 45.17-13.72 5.667-2.961 22.76-14.7 22.86-14.8.11.12 16.33 11.12 22.18 13.89 23.727 11.233 61.37 19.02 100.449 19.02 65.681 0 104.221-18.9 105.051-19.32l-27.48 137.2c-.094-.038-.189-.057-.283-.092-4.713-1.886-9.697-3.191-14.856-3.831v-57.457c0-5.523-4.478-9.5-10-9.5h-90v-13.5c0-5.523-4.478-9.5-10-9.5h-150.001c-5.523 0-10 3.977-10 9.5v13.5h-90c-5.523 0-10 3.977-10 9.5v57.457c-5.474.678-10.748 2.109-15.712 4.186-.112.043-.226.069-.338.117l-6.27-32.23c-.91-4.68-5.04-8.09-9.81-8.09-.64 0-1.28.07-1.92.19-5.41 1.05-8.96 6.31-7.9 11.73l7.85 40.32c-7.749 7.408-13.573 16.917-16.487 27.796-.028.104-20.15 86.25-20.15 86.25-.694 2.972.007 6.349 1.904 8.74 1.896 2.39 4.781 4.034 7.833 4.034h20v70c0 5.523 4.477 10 10 10h60c5.523 0 10-4.477 10-10v-30h292v30c0 5.523 4.478 10 10 10h60c5.522 0 10-4.477 10-10v-70h20c3.052 0 5.938-1.644 7.834-4.035 1.898-2.391 2.598-5.767 1.904-8.739zm-170.738-177.226h80v47h-80zm-150-23h130v70h-130zm-100 23h80v47h-80zm-1 250h-40v-20h40zm372 0h-40v-20h40zm0-40h-412v-20h412zm-439.395-40 17.167-73.496c4.725-17.379 20.576-29.504 38.598-29.504h355.26c18.022 0 33.873 12.123 38.599 29.502l17.167 73.498z"/><circle cx="30.265" cy="177.78" r="10"/></g></svg>