<svg id="Capa_1" enable-background="new 0 0 512 512" height="512" viewBox="0 0 512 512" width="512" xmlns="http://www.w3.org/2000/svg"><g><path fill="#daa520" d="m479.767 405.944h-112.615c17.945-17.535 29.66-41.415 31.478-67.974 42.305-2.286 76.022-37.419 76.022-80.284v-66.263h-361.536v139.29c0 29.452 12.167 56.111 31.733 75.23h-112.616v30h55.029l26.546 76.057h284.385l26.546-76.056h55.029v-30zm-35.115-184.52v36.263c0 26.229-20.141 47.835-45.768 50.186v-86.449zm-301.536 109.29v-109.29h225.769v109.29c0 41.482-33.748 75.23-75.229 75.23h-75.31c-41.482 0-75.23-33.748-75.23-75.23zm233.772 151.286h-241.776l-16.075-46.056h273.926z"/><path fill="#daa520" d="m168.625 151.979h30c0-9.237 1.837-13.048 4.618-18.815 3.384-7.018 7.596-15.753 7.596-31.846s-4.212-24.827-7.596-31.846c-2.781-5.768-4.618-9.578-4.618-18.816 0-9.236 1.837-13.046 4.618-18.813 3.384-7.018 7.596-15.751 7.596-31.843h-30c0 9.235-1.837 13.045-4.618 18.812-3.384 7.018-7.596 15.752-7.596 31.844 0 16.093 4.212 24.827 7.596 31.846 2.781 5.768 4.618 9.578 4.618 18.816s-1.837 13.049-4.618 18.816c-3.384 7.017-7.596 15.752-7.596 31.845z"/><path fill="#daa520" d="m301.161 151.979h30c0-9.237 1.837-13.048 4.618-18.815 3.384-7.018 7.596-15.753 7.596-31.846s-4.212-24.827-7.596-31.846c-2.781-5.768-4.618-9.578-4.618-18.816 0-9.236 1.837-13.046 4.618-18.813 3.384-7.018 7.596-15.751 7.596-31.843h-30c0 9.235-1.837 13.045-4.618 18.812-3.384 7.018-7.596 15.752-7.596 31.844 0 16.093 4.212 24.827 7.596 31.846 2.781 5.768 4.618 9.578 4.618 18.816s-1.837 13.049-4.618 18.816c-3.384 7.017-7.596 15.752-7.596 31.845z"/></g></svg>