<svg height="512pt" viewBox="-16 0 512 512.001" width="512pt" xmlns="http://www.w3.org/2000/svg"><path fill="#daa520" d="m199.847656 306h-.007812c-5.523438 0-9.996094 4.476562-9.996094 10 0 5.519531 4.480469 10 10.003906 10 5.523438 0 10-4.480469 10-10 0-5.523438-4.476562-10-10-10zm0 0"/><path fill="#daa520" d="m189.851562 227.746094c16.539063 0 30-13.457032 30-30 0-16.539063-13.460937-30-30-30-16.542968 0-30 13.460937-30 30 0 16.542968 13.457032 30 30 30zm0-40c5.511719 0 10 4.488281 10 10 0 5.515625-4.488281 10-10 10-5.515624 0-10-4.484375-10-10 0-5.511719 4.484376-10 10-10zm0 0"/><path fill="#daa520" d="m42.019531 241.007812v134.992188c0 5.519531 4.476563 10 10 10h275.660157c5.519531 0 10-4.480469 10-10v-135.003906c3.851562 1.699218 7.945312 2.542968 12.023437 2.542968 9.226563 0 18.335937-4.238281 24.199219-12.234374 9.761718-13.320313 6.867187-32.101563-6.4375-41.855469l-42.152344-31.011719v-98.4375h6.453125c5.523437 0 10-4.476562 10-10v-40c0-5.523438-4.476563-10-10-10h-100c-5.523437 0-10 4.476562-10 10v40c0 5.523438 4.476563 10 10 10h6.453125v34.355469l-30.21875-22.234375c-10.488281-7.988282-25.21875-8.128906-35.875-.3125l-47.730469 35.117187c-4.449219 3.273438-5.398437 9.53125-2.128906 13.980469 3.273437 4.445312 9.535156 5.398438 13.984375 2.128906l47.714844-35.109375c3.546875-2.601562 8.457031-2.550781 11.941406.125.054688.042969.109375.082031.164062.121094l159.558594 117.398437c4.425782 3.246094 5.386719 9.484376 2.144532 13.914063-3.246094 4.425781-9.488282 5.386719-13.902344 2.152344l-148.09375-108.964844c-3.527344-2.59375-8.328125-2.59375-11.855469 0l-148.082031 108.953125c-4.425782 3.246094-10.667969 2.285156-13.914063-2.144531-3.242187-4.425781-2.28125-10.667969 2.160157-13.921875l47.722656-35.113282c4.449218-3.273437 5.402344-9.535156 2.128906-13.984374-3.269531-4.445313-9.53125-5.398438-13.980469-2.125l-47.710937 35.101562c-13.320313 9.765625-16.214844 28.546875-6.449219 41.867188 8.449219 11.527343 23.640625 15.238281 36.222656 9.703124zm199.746094-221.007812h80v20h-80zm16.453125 40h47.09375v83.722656l-47.09375-34.652344zm-118.371094 265.996094h-37.828125v-39.996094h37.828125zm20 10.003906s0 0 0-.003906c0 0 0 0 0-.003906v-59.984376c0-.003906 0-.007812 0-.007812 0-.003906 0-.007812 0-.011719v-9.992187h60v100h-60zm80-50h37.828125v39.996094h-37.828125zm-50-152.855469 127.832032 94.050781v138.804688h-77.832032v-20.003906h47.828125c5.523438 0 10-4.476563 10-10v-59.996094c0-5.523438-4.476562-10-10-10h-47.828125c0-11.03125-8.96875-20-20-20h-60c-11.027344 0-20 8.96875-20 20h-47.828125c-5.523437 0-10 4.476562-10 10v59.996094c0 5.523437 4.476563 10 10 10h47.828125v20.003906h-77.828125v-138.804688zm0 0"/><path fill="#daa520" d="m354.074219 449.539062c-3.90625-3.90625-10.238281-3.90625-14.144531 0-3.902344 3.902344-3.902344 10.234376 0 14.140626l5.625 5.625h-17.875c-5.523438 0-10 4.476562-10 10 0 5.523437 4.476562 10 10 10h17.875l-5.625 5.625c-3.902344 3.90625-3.902344 10.234374 0 14.140624 1.953124 1.953126 4.511718 2.929688 7.070312 2.929688 2.5625 0 5.121094-.976562 7.074219-2.929688l22.695312-22.691406c3.902344-3.90625 3.902344-10.238281 0-14.144531zm0 0"/><path fill="#daa520" d="m247.679688 469.304688h-213.535157l5.621094-5.625c3.90625-3.902344 3.90625-10.234376 0-14.140626-3.902344-3.902343-10.234375-3.90625-14.140625 0l-22.695312 22.695313c-1.875 1.875-2.929688 4.417969-2.929688 7.070313 0 2.652343 1.054688 5.195312 2.929688 7.070312l22.695312 22.695312c1.953125 1.953126 4.511719 2.929688 7.070312 2.929688 2.558594 0 5.121094-.976562 7.070313-2.929688 3.90625-3.90625 3.90625-10.238281 0-14.144531l-5.621094-5.621093h213.535157c5.519531 0 10-4.480469 10-10 0-5.523438-4.480469-10-10-10zm0 0"/><path fill="#daa520" d="m462.929688 346.230469-5.625 5.625v-317.714844l5.625 5.625c3.90625 3.902344 10.234374 3.902344 14.140624 0 3.90625-3.90625 3.90625-10.238281 0-14.144531l-22.695312-22.691406c-3.902344-3.90625-10.234375-3.90625-14.140625 0l-22.695313 22.695312c-3.90625 3.902344-3.90625 10.234375 0 14.140625 1.953126 1.953125 4.511719 2.929687 7.070313 2.929687s5.117187-.976562 7.070313-2.929687l5.625-5.625v317.714844l-5.625-5.625c-3.90625-3.902344-10.238282-3.902344-14.144532 0-3.902344 3.90625-3.902344 10.238281 0 14.144531l22.699219 22.695312c1.953125 1.953126 4.511719 2.929688 7.070313 2.929688 2.558593 0 5.117187-.976562 7.070312-2.929688l22.695312-22.695312c3.902344-3.90625 3.902344-10.238281 0-14.144531-3.90625-3.902344-10.234374-3.902344-14.140624 0zm0 0"/><path fill="#daa520" d="m98.105469 148.6875c2.257812 0 4.527343-.761719 6.394531-2.316406l.007812-.003906c4.242188-3.539063 4.8125-9.839844 1.277344-14.082032-3.535156-4.246094-9.84375-4.8125-14.085937-1.28125-4.246094 3.539063-4.816407 9.84375-1.28125 14.085938 1.976562 2.371094 4.824219 3.597656 7.6875 3.597656zm0 0"/><path fill="#daa520" d="m287.683594 469.304688h-.007813c-5.523437 0-9.996093 4.476562-9.996093 10 0 5.523437 4.480468 10 10.003906 10 5.519531 0 10-4.476563 10-10 0-5.523438-4.480469-10-10-10zm0 0"/></svg>